<?xml version="1.0" encoding="UTF-8" standalone="no"?>
<!-- Created with Inkscape (http://www.inkscape.org/) -->

<svg
   width="48"
   height="48"
   viewBox="0 0 12.7 12.7"
   version="1.1"
   id="svg2604"
   xmlns="http://www.w3.org/2000/svg"
   xmlns:svg="http://www.w3.org/2000/svg">
  <defs
     id="defs2601" />
  <g
     id="layer1">
    <g
       id="g3473"
       transform="translate(-4.7101416,2.6998504)">
      <path
         id="path3464"
         style="fill:#519872;fill-opacity:1;stroke:none;stroke-width:0.357981;stroke-linecap:round;stroke-miterlimit:22.7"
         d="m -8.0210505,12.280139 -3.7775475,6.660576 9.0855643,-0.01313 0.6190824,-1.229303 -7.6592931,0.05852 2.4313761,-4.287076 z" />
      <path
         id="path3466"
         style="fill:#f58a07;fill-opacity:1;stroke:none;stroke-width:0.357981;stroke-linecap:round;stroke-miterlimit:22.7"
         d="m -2.0939508,17.698286 -3.879112,-6.60194 -4.5512592,7.83465 0.8192488,1.21381 3.7345044,-6.68518 2.49681,4.249301 z" />
      <path
         id="path3468"
         style="fill:#87f1ff;fill-opacity:1;stroke:none;stroke-width:0.358;stroke-linecap:round;stroke-miterlimit:22.7;stroke-dasharray:none"
         d="m -9.7050732,20.144806 7.6564544,-0.108723 -4.621673,-7.710695 -1.3507586,-0.04525 3.9168236,6.589939 -4.9280546,0.07002 z" />
      <g
         id="g4255"
         transform="matrix(1.1940197,0,0,1.1940197,-2.1458853,-0.28533336)">
        <g
           id="g6541"
           transform="translate(-14.828076,31.381022)">
          <path
             id="path6532"
             style="fill:#2ba84a;fill-opacity:1;stroke:none;stroke-width:0.357981;stroke-linecap:round;stroke-miterlimit:22.7"
             d="M 5.197398,-2.2959517 1.9024022,4.6160762 10.964094,3.9577548 11.494312,2.6875909 3.8585137,3.2899036 5.9792959,-1.1590176 Z"
             transform="rotate(4.0723976,-24.083782,65.846026)" />
          <path
             id="path6534"
             style="fill:#f3b61f;fill-opacity:1;stroke:none;stroke-width:0.357981;stroke-linecap:round;stroke-miterlimit:22.7"
             d="m 15.889799,5.3737055 -3.879112,-6.6019404 -4.5512593,7.8346505 0.8192489,1.2138093 3.7345044,-6.6851797 2.49681,4.249301 z" />
          <path
             id="path6536"
             style="fill:#009ffd;fill-opacity:1;stroke:none;stroke-width:0.358;stroke-linecap:round;stroke-miterlimit:22.7;stroke-dasharray:none"
             d="M 8.2786766,7.8202249 15.935131,7.7115026 11.313458,8.0683639e-4 9.9626994,-0.04444168 13.879523,6.5454967 8.9514684,6.6155117 Z" />
        </g>
        <g
           id="g7607"
           transform="translate(-0.26811596,-0.59206191)">
          <path
             id="path4246"
             style="fill:#006466;fill-opacity:1;stroke:none;stroke-width:0.357981;stroke-linecap:round;stroke-miterlimit:22.7"
             d="M 5.1972849,-2.2958092 2.483414,3.3969423 C 2.3984991,3.5373398 2.4125998,3.555066 2.507522,3.6753011 L 3.1770798,4.5234099 10.964168,3.957714 11.494211,2.687731 3.8585466,3.28994 5.9746002,-1.1774808 Z"
             transform="rotate(4.0723976,-24.083782,65.846026)" />
          <path
             id="path4248"
             style="fill:#f58a07;fill-opacity:1;stroke:none;stroke-width:0.357981;stroke-linecap:round;stroke-miterlimit:22.7"
             d="M 11.314624,-0.03002535 7.4592971,6.6064348 8.2785758,7.8204214 11.999737,1.1458754 14.509941,5.3842251 15.889688,5.373838 12.722503,-0.01660874 Z" />
          <path
             id="path4250"
             style="fill:#009ffd;fill-opacity:1;stroke:none;stroke-width:0.358;stroke-linecap:round;stroke-miterlimit:22.7;stroke-dasharray:none"
             d="M 9.9625765,-0.04430755 13.87936,6.5454108 8.9515702,6.6155234 8.2785758,7.8204214 14.726771,7.7286691 15.272524,6.5995101 11.313326,-0.04430755 Z" />
          <path
             style="opacity:1;fill:#006466;fill-opacity:1;stroke-width:0.886362;stroke-linecap:round;stroke-miterlimit:22.7;stroke-dasharray:none"
             d="m 12.823633,5.3971326 1.776703,-0.013483 0.67038,1.2193584 -2.073902,-0.047812 z"
             id="path7234" />
        </g>
        <g
           id="g7564"
           transform="translate(-0.26811596,12.66371)">
          <path
             id="path7552"
             style="fill:#006466;fill-opacity:1;stroke:none;stroke-width:0.357981;stroke-linecap:round;stroke-miterlimit:22.7"
             d="M 5.1972849,-2.2958092 2.4097522,3.551459 3.1770798,4.5234099 10.964168,3.957714 11.494211,2.687731 3.8585466,3.28994 5.9746002,-1.1774808 Z"
             transform="rotate(4.0723976,-24.083782,65.846026)" />
          <path
             id="path7554"
             style="fill:#f58a07;fill-opacity:1;stroke:none;stroke-width:0.357981;stroke-linecap:round;stroke-miterlimit:22.7"
             d="M 11.314624,-0.03002535 7.4592971,6.6064348 8.2785758,7.8204214 11.999737,1.1458754 14.509941,5.3842251 15.889688,5.373838 12.722503,-0.01660874 Z" />
          <path
             id="path7556"
             style="fill:#009ffd;fill-opacity:1;stroke:none;stroke-width:0.358;stroke-linecap:round;stroke-miterlimit:22.7;stroke-dasharray:none"
             d="M 9.9625765,-0.04430755 13.87936,6.5454108 8.9515702,6.6155234 8.2785758,7.8204214 14.726771,7.7286691 15.272524,6.5995101 11.313326,-0.04430755 Z" />
          <path
             style="opacity:1;fill:#006466;fill-opacity:1;stroke-width:0.886362;stroke-linecap:round;stroke-miterlimit:22.7;stroke-dasharray:none"
             d="m 12.823633,5.3971326 1.776703,-0.013483 0.67038,1.2193584 -2.073902,-0.047812 z"
             id="path7558" />
        </g>
        <rect
           style="opacity:1;fill:#009ffd;fill-opacity:1;stroke-width:1.10125;stroke-linecap:round;stroke-miterlimit:22.7;stroke-dasharray:none"
           id="rect7661"
           width="3.0979724"
           height="1.1402464"
           x="-0.96769404"
           y="12.434883"
           ry="0"
           transform="rotate(-65.353631)" />
        <rect
           style="opacity:1;fill:#f58a07;fill-opacity:1;stroke-width:1.13004;stroke-linecap:round;stroke-miterlimit:22.7;stroke-dasharray:none"
           id="rect7663"
           width="3.2620566"
           height="1.1402464"
           x="10.179255"
           y="1.7831093"
           ry="4.4408921e-16" />
        <rect
           style="opacity:1;fill:#006466;fill-opacity:1;stroke-width:1.06861;stroke-linecap:round;stroke-miterlimit:22.7;stroke-dasharray:none"
           id="rect7665"
           width="2.9727592"
           height="1.1188818"
           x="7.3312216"
           y="-5.9847026"
           ry="0"
           transform="rotate(53.996989)" />
        <g
           id="g7865"
           transform="translate(0.34623504,25.896622)">
          <g
             id="g7849"
             transform="translate(-0.26811596,-0.59206191)">
            <path
               id="path7841"
               style="fill:#006466;fill-opacity:1;stroke:none;stroke-width:0.357981;stroke-linecap:round;stroke-miterlimit:22.7"
               d="M 5.1972849,-2.2958092 2.4097522,3.551459 3.1770798,4.5234099 10.964168,3.957714 11.494211,2.687731 3.8585466,3.28994 5.9746002,-1.1774808 Z"
               transform="rotate(4.0723976,-24.083782,65.846026)" />
            <path
               id="path7843"
               style="fill:#f58a07;fill-opacity:1;stroke:none;stroke-width:0.357981;stroke-linecap:round;stroke-miterlimit:22.7"
               d="M 11.314624,-0.03002535 7.4592971,6.6064348 8.2785758,7.8204214 11.999737,1.1458754 14.509941,5.3842251 15.889688,5.373838 12.722503,-0.01660874 Z" />
            <path
               id="path7845"
               style="fill:#009ffd;fill-opacity:1;stroke:none;stroke-width:0.358;stroke-linecap:round;stroke-miterlimit:22.7;stroke-dasharray:none"
               d="M 9.9625765,-0.04430755 13.87936,6.5454108 8.9515702,6.6155234 8.2785758,7.8204214 14.726771,7.7286691 15.272524,6.5995101 11.313326,-0.04430755 Z" />
            <path
               style="opacity:1;fill:#006466;fill-opacity:1;stroke-width:0.886362;stroke-linecap:round;stroke-miterlimit:22.7;stroke-dasharray:none"
               d="m 12.823633,5.3971326 1.776703,-0.013483 0.67038,1.2193584 -2.073902,-0.047812 z"
               id="path7847" />
          </g>
          <rect
             style="opacity:1;fill:#009ffd;fill-opacity:1;stroke-width:0.886362;stroke-linecap:round;stroke-miterlimit:22.7;stroke-dasharray:none"
             id="rect7851"
             width="2.0069075"
             height="1.1402464"
             x="10.759921"
             y="2.7258718"
             ry="4.4408921e-16" />
          <rect
             style="opacity:1;fill:#f58a07;fill-opacity:1;stroke-width:0.915524;stroke-linecap:round;stroke-miterlimit:22.7;stroke-dasharray:none"
             id="rect7853"
             width="2.1411383"
             height="1.1402464"
             x="9.5517645"
             y="2.7258718"
             ry="4.4408921e-16" />
          <path
             id="path7855"
             style="opacity:1;fill:#006466;stroke-width:0.90607;stroke-linecap:round;stroke-miterlimit:22.7"
             d="m 8.4282693,3.8661182 c -0.00571,0 -0.010293,-0.00439 -0.010293,-0.00985 V 2.7357238 c 0,-0.00546 0.00459,-0.00985 0.010293,-0.00985 h 2.0765587 c 0.0057,0 0.01301,0.00508 0.01035,0.00985 -0.470773,0.8486581 -0.6441376,1.1553627 -0.6441376,1.1553627 0,0 -0.3494139,-0.025625 -1.4427711,-0.024968 z" />
        </g>
        <g
           id="g7996"
           transform="translate(13.188658,13.002973)">
          <g
             id="g7980"
             transform="translate(-0.26811596,-0.59206191)">
            <path
               id="path7972"
               style="fill:#006466;fill-opacity:1;stroke:none;stroke-width:0.357981;stroke-linecap:round;stroke-miterlimit:22.7"
               d="M 5.1972849,-2.2958092 2.4097522,3.551459 3.1770798,4.5234099 10.964168,3.957714 11.494211,2.687731 3.8585466,3.28994 5.9746002,-1.1774808 Z"
               transform="rotate(4.0723976,-24.083782,65.846026)" />
            <path
               id="path7974"
               style="fill:#f58a07;fill-opacity:1;stroke:none;stroke-width:0.357981;stroke-linecap:round;stroke-miterlimit:22.7"
               d="M 11.314624,-0.03002535 7.4592971,6.6064348 8.2785758,7.8204214 11.999737,1.1458754 14.509941,5.3842251 15.889688,5.373838 12.722503,-0.01660874 Z" />
            <path
               id="path7976"
               style="fill:#009ffd;fill-opacity:1;stroke:none;stroke-width:0.358;stroke-linecap:round;stroke-miterlimit:22.7;stroke-dasharray:none"
               d="M 9.9625765,-0.04430755 13.87936,6.5454108 8.9515702,6.6155234 8.2785758,7.8204214 14.726771,7.7286691 15.272524,6.5995101 11.313326,-0.04430755 Z" />
            <path
               style="opacity:1;fill:#006466;fill-opacity:1;stroke-width:0.886362;stroke-linecap:round;stroke-miterlimit:22.7;stroke-dasharray:none"
               d="m 12.823633,5.3971326 1.776703,-0.013483 0.67038,1.2193584 -2.073902,-0.047812 z"
               id="path7978" />
          </g>
          <rect
             style="opacity:1;fill:#009ffd;fill-opacity:1;stroke-width:1.10125;stroke-linecap:round;stroke-miterlimit:22.7;stroke-dasharray:none"
             id="rect7982"
             width="3.0979724"
             height="1.1402464"
             x="-0.96769404"
             y="12.434883"
             ry="0"
             transform="rotate(-65.353631)" />
          <rect
             style="opacity:1;fill:#f58a07;fill-opacity:1;stroke-width:1.13004;stroke-linecap:round;stroke-miterlimit:22.7;stroke-dasharray:none"
             id="rect7984"
             width="3.2620566"
             height="1.1402464"
             x="10.179255"
             y="1.7831093"
             ry="4.4408921e-16" />
          <rect
             style="opacity:1;fill:#006466;fill-opacity:1;stroke-width:1.06861;stroke-linecap:round;stroke-miterlimit:22.7;stroke-dasharray:none"
             id="rect7986"
             width="2.9727592"
             height="1.1188818"
             x="7.3312216"
             y="-5.9847026"
             ry="0"
             transform="rotate(53.996989)" />
        </g>
      </g>
      <g
         id="g4263"
         transform="matrix(1.1940197,0,0,1.1940197,-20.584592,24.859645)">
        <path
           id="path4257"
           style="fill:#357266;fill-opacity:1;stroke:none;stroke-width:0.357981;stroke-linecap:round;stroke-miterlimit:22.7"
           d="M 5.197398,-2.2959517 1.9024022,4.6160762 10.964094,3.9577548 11.494312,2.6875909 3.8585137,3.2899036 5.9792959,-1.1590176 Z"
           transform="rotate(4.0723976,-24.083782,65.846026)" />
        <path
           id="path4259"
           style="fill:#fe5f00;fill-opacity:1;stroke:none;stroke-width:0.357981;stroke-linecap:round;stroke-miterlimit:22.7"
           d="m 15.889799,5.3737055 -3.879112,-6.6019404 -4.5512593,7.8346505 0.8192489,1.2138093 3.7345044,-6.6851797 2.49681,4.249301 z" />
        <path
           id="path4261"
           style="fill:#55dde0;fill-opacity:1;stroke:none;stroke-width:0.358;stroke-linecap:round;stroke-miterlimit:22.7;stroke-dasharray:none"
           d="M 8.2786766,7.8202249 15.935131,7.7115026 11.313458,8.0683639e-4 9.9626994,-0.04444168 13.879523,6.5454967 8.9514684,6.6155117 Z" />
      </g>
    </g>
  </g>
</svg>
