<?xml version="1.0" encoding="UTF-8" standalone="no"?>
<!-- Created with Inkscape (http://www.inkscape.org/) -->

<svg
   width="120"
   height="120"
   viewBox="0 0 120 120"
   version="1.1"
   id="svg5"
   xmlns="http://www.w3.org/2000/svg"
   xmlns:svg="http://www.w3.org/2000/svg">
  <defs
     id="defs2" />
  <g
     id="layer1">
    <g
       id="g40231"
       transform="matrix(0.98157655,0,0,0.98157655,0.4437043,1.5899184)">
      <path
         style="fill:#2e282a;fill-opacity:1;stroke-width:1;stroke-dasharray:none"
         d="m 53.664454,38.752136 0.35442,-0.276092 -0.46359,-0.741414 -0.46359,-0.741415 0.38502,-0.936461 c 0.21177,-0.515052 0.38784,-1.080278 0.39127,-1.256055 0.004,-0.175777 0.077,-0.427459 0.16359,-0.559291 0.13987,-0.213063 0.17484,-0.213063 0.3147,0 0.13327,0.20301 0.15773,0.194814 0.1598,-0.05355 0.001,-0.161285 0.4339,-0.778707 0.96123,-1.37205 0.54407,-0.612179 0.95879,-1.228367 0.95879,-1.42458 -10e-6,-0.190174 0.0719,-0.345772 0.15979,-0.345772 0.40451,0 0.0794,0.724717 -0.76876,1.713721 -1.02734,1.197933 -1.27186,1.642028 -0.9041,1.642028 0.12908,0 0.23924,0.08989 0.24481,0.199747 0.006,0.109861 0.0752,0.03795 0.15465,-0.159797 0.0795,-0.19775 0.22413,-0.359545 0.32143,-0.359545 0.0973,0 0.66459,-0.315474 1.26063,-0.701053 0.59605,-0.38558 1.23792,-0.749994 1.42639,-0.80981 0.36952,-0.117282 0.75493,-0.686553 0.58193,-0.859548 -0.0582,-0.05823 -0.62134,-0.285776 -1.25138,-0.505656 -1.03007,-0.359499 -1.15078,-0.446026 -1.19794,-0.858694 -0.0289,-0.252401 0.0302,-0.540036 0.13116,-0.63919 0.13779,-0.135309 0.15733,-0.07388 0.0783,0.246252 -0.14918,0.604364 0.16382,0.762638 3.43843,1.738687 1.53805,0.458441 2.89814,0.872143 3.02242,0.919337 0.13695,0.05201 0.18323,0.01667 0.11748,-0.08971 -0.1022,-0.165371 -4.14638,-3.466489 -5.39258,-4.401783 l -0.57481,-0.431399 -0.65294,0.472985 c -0.35912,0.260142 -0.84709,0.80427 -1.08438,1.209172 -0.38152,0.651031 -0.42114,0.84964 -0.34248,1.717044 0.0734,0.809182 0.0346,1.057188 -0.2216,1.416958 -0.17079,0.239854 -0.42053,0.67469 -0.55498,0.966303 -0.21772,0.472217 -0.23455,0.482262 -0.15388,0.09185 0.0841,-0.406927 -0.0442,-0.537362 -1.78982,-1.819571 -2.76623,-2.031903 -3.5726,-2.654832 -3.51335,-2.714086 0.0292,-0.02917 1.41257,-0.001 3.07422,0.06252 l 3.02118,0.115562 0.48534,-0.453273 c 0.26694,-0.2493 0.71501,-0.63228 0.99571,-0.851066 0.48544,-0.378347 0.50568,-0.437479 0.41423,-1.209671 -0.06,-0.506472 -0.038,-0.775935 0.0584,-0.716328 0.085,0.05256 0.4334,-0.704839 0.77417,-1.683129 0.34076,-0.978274 0.64542,-1.701127 0.67701,-1.60634 0.0316,0.09479 0.47273,1.636475 0.9803,3.425972 l 0.92284,3.253632 3.50413,0.09677 c 1.927267,0.05323 3.535277,0.107158 3.573357,0.119848 0.0853,0.02844 -2.103287,1.526716 -3.184917,2.180342 -0.46134,0.278782 -0.79457,0.596415 -0.79633,0.759038 -0.002,0.199641 -0.1322,0.279645 -0.45456,0.279645 -0.55288,0 -1.14643,0.58855 -1.14643,1.136771 0,0.218395 0.21445,1.076668 0.47656,1.907272 0.56631,1.794557 0.5667,1.798236 0.17578,1.674164 -0.22535,-0.07153 -0.41945,0.05092 -0.7336,0.462794 -0.39271,0.514862 -0.45502,0.542422 -0.7722,0.341542 -0.33178,-0.210119 -0.74663,-0.297429 -2.37301,-0.499427 -0.83162,-0.103286 -3.72481,0.196245 -4.16355,0.43105 -0.15415,0.0825 -0.28027,0.222633 -0.28027,0.311412 0,0.146283 0.41322,0.117637 1.51808,-0.105241 0.17578,-0.03546 0.22931,-0.02306 0.11896,0.02757 -0.14852,0.06813 -0.11739,0.19787 0.11985,0.499467 l 0.66106,0.191503 c 0,0 0.61812,0.112971 0.61812,0.43209 0,0.1352 0.16954,0.217603 0.43944,0.213578 0.43692,-0.0065 0.43543,-0.01018 -0.26025,-0.63919 -0.38483,-0.347952 -0.85224,-0.639807 -1.03869,-0.648567 -0.30359,-0.01427 -0.29727,-0.02929 0.0605,-0.143868 0.21973,-0.07036 0.57927,-0.1266 0.79899,-0.124964 0.38792,0.0029 0.38683,0.0059 -0.0377,0.10392 l -0.43715,0.100943 0.63416,0.362739 0.63415,0.362738 -0.14685,-0.386258 c -0.0808,-0.21244 -0.10351,-0.429604 -0.0505,-0.482587 0.15369,-0.153695 1.01834,-0.09896 1.83304,0.116044 0.8805,0.232366 1.13113,0.401488 0.44596,0.300927 -0.26297,-0.0386 -0.47815,-0.03203 -0.47815,0.01461 0,0.270151 0.655,1.549462 0.79331,1.549462 0.23468,0 0.20602,-0.438283 -0.0343,-0.524098 -0.10986,-0.03924 -0.14891,-0.126021 -0.0868,-0.192855 0.0621,-0.06684 0.23155,-0.07601 0.3765,-0.02038 0.18529,0.0711 0.23524,0.213886 0.16822,0.480896 -0.0751,0.299237 -0.0209,0.399236 0.25572,0.471566 0.50351,0.131671 0.52724,0.03076 0.1451,-0.616926 -0.39205,-0.664478 -0.42766,-0.829153 -0.12495,-0.577933 0.11794,0.09789 0.26176,0.130662 0.31959,0.07283 0.22183,-0.221825 0.088,-0.371572 -0.3343,-0.373922 -0.32805,-0.0019 -0.38086,-0.03951 -0.20835,-0.148649 0.14233,-0.09005 0.3466,-0.08438 0.53183,0.01475 0.16541,0.08852 0.40361,0.121478 0.52933,0.07323 0.12574,-0.04825 0.38977,-0.0266 0.58676,0.04811 3.694757,-2.825803 4.991287,-6.659928 0.75765,-0.0146 0,0.07353 0.17977,0.302578 0.39949,0.508997 0.27082,0.254413 0.3995,0.546488 0.3995,0.90674 0,0.510612 -0.0243,0.531439 -0.61914,0.531439 z m 1.85188,-0.955226 c 0.16783,-0.295879 -0.37814,-2.210993 -0.70726,-2.480858 -0.19026,-0.156004 -0.37572,-0.253846 -0.41214,-0.217425 -0.0364,0.03642 0.0382,0.487647 0.16575,1.002731 0.12759,0.515082 0.2768,1.134263 0.3316,1.375956 0.0922,0.406639 0.46425,0.597793 0.62205,0.319596 z m 5.24853,-0.359545 c -0.0306,-0.219722 -0.08,-0.42499 -0.10993,-0.456151 -0.12121,-0.126359 -3.43368,-0.218767 -4.12513,-0.115079 -0.65545,0.09829 -0.74299,0.15832 -0.74299,0.509458 v 0.398038 l 1.31832,-0.09392 c 0.72509,-0.05166 1.67788,-0.02643 2.11732,0.05608 1.2743,0.239239 1.60821,0.174635 1.54241,-0.29842 z m -2.50119,-0.958785 c 0.0543,-0.08789 0.0226,-0.159798 -0.0705,-0.159798 -0.0931,0 -0.16923,0.07191 -0.16923,0.159798 0,0.08789 0.0317,0.159797 0.0705,0.159797 0.0388,0 0.11491,-0.07191 0.16923,-0.159797 z m -1.95448,-0.424413 c -0.10819,-0.04377 -0.32392,-0.04643 -0.47939,-0.0059 -0.15548,0.04052 -0.067,0.07633 0.1967,0.07959 0.26367,0.0032 0.39088,-0.02989 0.28269,-0.07367 z m 4.19164,-0.05498 c -0.26366,-0.06709 -1.23443,-0.116567 -2.15726,-0.109946 l -1.67788,0.01205 1.59798,0.0979 c 0.87888,0.05385 1.84965,0.103322 2.15726,0.109943 l 0.5593,0.01205 -0.4794,-0.121985 z m -4.31031,-0.44853 c -0.0492,-0.0492 -0.17813,-1.02e-4 -0.28653,0.109107 -0.15664,0.157819 -0.13829,0.176173 0.0894,0.08946 0.1576,-0.06001 0.24629,-0.149362 0.19708,-0.198562 z m 3.11183,-0.03087 c 0,-0.08789 -0.0317,-0.159797 -0.0705,-0.159797 -0.0388,0 -0.11491,0.07191 -0.16922,0.159797 -0.0543,0.08789 -0.0226,0.159798 0.0705,0.159798 0.0931,0 0.16923,-0.07191 0.16923,-0.159798 z m 1.07531,0.06325 c -0.0531,-0.0531 -0.19093,-0.05878 -0.30628,-0.01261 -0.12748,0.05101 -0.0896,0.08888 0.0965,0.09654 0.16846,0.0069 0.26283,-0.03083 0.20974,-0.08393 z m -1.8988,-0.542644 c 0.93878,0 1.16439,-0.04261 1.01525,-0.191757 -0.30368,-0.303675 -0.22368,-0.866651 0.15928,-1.120926 0.32701,-0.21713 0.26477,-0.240374 -0.90946,-0.339632 -1.15192,-0.09737 -1.30948,-0.0743 -1.82917,0.267898 -0.31276,0.205947 -0.75682,0.489197 -0.98678,0.629445 -0.22996,0.140248 -0.4595,0.413254 -0.51008,0.60668 -0.0893,0.341596 -0.0641,0.348766 0.881,0.249987 0.53513,-0.05593 1.51612,-0.101695 2.17996,-0.101695 z m -1.50837,-0.561368 c -0.11556,-0.460396 0.15709,-0.876811 0.57409,-0.876811 0.41699,0 0.68964,0.416415 0.57409,0.876811 -0.0793,0.315824 -0.20185,0.40157 -0.57409,0.40157 -0.37224,0 -0.49482,-0.08575 -0.57409,-0.40157 z m 0.86872,-0.147988 c 0.0888,-0.457846 -0.25053,-0.681613 -0.56169,-0.370449 -0.2213,0.2213 -0.2303,0.306326 -0.0548,0.517816 0.25455,0.306715 0.54175,0.238061 0.61647,-0.147367 z m 3.51734,0.185448 c 0.12599,-0.331014 0.19802,-0.632893 0.16007,-0.670842 -0.0379,-0.03795 -0.38896,-0.120161 -0.78004,-0.182696 -0.67518,-0.107965 -0.69704,-0.0997 -0.43344,0.163895 0.34077,0.340769 0.35263,0.636296 0.0382,0.950771 -0.21272,0.212727 -0.20827,0.247778 0.04,0.314142 0.53963,0.144273 0.7483,0.02119 0.97532,-0.57527 z m -1.09541,-0.195182 c 0,-0.460426 -0.53883,-0.571929 -0.70252,-0.145377 -0.13089,0.341102 0.0158,0.544872 0.39235,0.544872 0.22431,0 0.31017,-0.11058 0.31017,-0.399495 z m 1.67377,-1.190545 c 0.13409,-0.259302 0.2438,-0.503811 0.2438,-0.543354 0,-0.03954 -0.36107,-0.158515 -0.80238,-0.264384 -0.63345,-0.151962 -0.85269,-0.150737 -1.04133,0.0058 -0.13142,0.10907 -0.56195,0.22249 -0.95673,0.252045 -0.39478,0.02955 -0.91493,0.160703 -1.15589,0.291439 l -0.43811,0.237702 0.79899,0.02365 c 0.65605,0.01941 1.40223,0.130541 2.9921,0.445605 0.0637,0.01262 0.22546,-0.189218 0.35955,-0.44852 z m 1.36238,4.072373 c 0,-0.04085 0.1618,-0.160487 0.35955,-0.265858 0.32602,-0.173719 0.33909,-0.166794 0.14023,0.07428 -0.20419,0.24753 -0.49978,0.360838 -0.49978,0.191581 z m -8.07366,-10.516588 c -0.0718,-0.382726 -0.23112,-0.614176 -0.51034,-0.741401 -0.22328,-0.101731 -0.36696,-0.223975 -0.31928,-0.271651 0.18758,-0.187578 0.89908,0.468637 0.99839,0.920815 0.0579,0.263487 0.0671,0.517229 0.0204,0.563869 -0.0466,0.04664 -0.13177,-0.165593 -0.18918,-0.471632 z m 1.5405,-1.182634 c -0.0341,-0.640991 -0.47057,-0.897027 -1.36698,-0.801929 -0.51459,0.0546 -0.69257,0.03642 -0.48923,-0.04998 0.17578,-0.07468 0.5876,-0.140835 0.91515,-0.147013 0.46289,-0.0087 0.65272,0.07601 0.85217,0.380406 0.14114,0.215401 0.22304,0.521013 0.18202,0.67914 -0.0604,0.232867 -0.0781,0.221345 -0.0931,-0.06063 z m -2.30515,-0.0069 c -0.30542,-0.04591 -0.43313,-0.148967 -0.3995,-0.322359 0.0272,-0.140181 0.14113,-0.273417 0.25319,-0.29608 0.11206,-0.02266 0.13004,-0.0047 0.0399,0.04003 -0.30277,0.150158 -0.1673,0.374194 0.22627,0.374194 0.21454,0 0.4345,0.07191 0.48882,0.159797 0.0543,0.08789 0.0406,0.149024 -0.0305,0.135855 -0.0711,-0.01316 -0.3313,-0.05431 -0.57821,-0.09143 z m 0.84843,-0.443919 c 0,-0.131832 0.10786,-0.239696 0.2397,-0.239696 0.13183,0 0.2397,0.107864 0.2397,0.239696 0,0.131834 -0.10787,0.239697 -0.2397,0.239697 -0.13184,0 -0.2397,-0.107863 -0.2397,-0.239697 z"
         id="path10906" />
      <path
         id="path12487"
         style="opacity:1;fill:#ffcc01;fill-opacity:1;stroke:#000000;stroke-width:1;stroke-linejoin:bevel;stroke-dasharray:none;stroke-dashoffset:0"
         d="M 56.866288,11.629533 A 18.541409,18.541409 0 0 0 38.325273,30.170549 18.541409,18.541409 0 0 0 56.866288,48.713518 18.541409,18.541409 0 0 0 75.407304,30.170549 18.541409,18.541409 0 0 0 56.866288,11.629533 Z m 1.244141,9.048828 A 11.158553,11.158553 0 0 1 69.268632,31.836565 11.158553,11.158553 0 0 1 58.110429,42.994768 11.158553,11.158553 0 0 1 46.952226,31.836565 11.158553,11.158553 0 0 1 58.110429,20.678361 Z" />
      <g
         id="g39479">
        <path
           id="path15755"
           style="fill:#028003;fill-opacity:1;stroke:#000000;stroke-width:1;stroke-linejoin:round;stroke-dasharray:none"
           d="M 50.481523,54.438127 39.452226,77.293596 c -1.44358,2.480722 -1.651861,2.856017 0.03711,4.949219 l 5.269531,6.53125 c 0.833053,1.393344 1.500037,1.136852 3.017578,1.083984 l 11.28125,-0.394531 0.441407,11.447262 0.482422,12.51563 C 60.747908,113.0367 75.74462,88.412435 80.055741,81.199846 81.387893,78.925394 80.802542,78.380219 79.815507,76.28383 l -2.794922,-5.933594 c -0.676809,-1.885124 -0.930824,-1.724214 -2.78125,-1.466797 l -11.255859,1.566407 2.636718,-15.640625 z m 3.171874,9.076172 10.402344,0.228516 -1.839844,9.734374 6.025391,-1.091796 c 1.136147,-0.158053 1.291476,-0.259015 1.707031,0.898437 l 1.714844,3.644531 c 0.606032,1.287167 0.966369,1.621082 0.148438,3.017578 -2.646997,4.428474 -11.855618,19.547823 -12.326172,19.78711 l -0.294922,-7.683594 -0.271484,-7.029297 -6.925782,0.242188 c -0.931759,0.03246 -1.342026,0.189487 -1.853515,-0.666016 l -3.234375,-4.009765 c -1.037017,-1.285211 -0.909785,-1.515918 -0.02344,-3.039063 z" />
        <path
           style="fill:#fbcc00;fill-opacity:1;stroke:#000000;stroke-width:1;stroke-linejoin:round;stroke-dasharray:none"
           d="m 53.722954,63.521861 -6.771756,14.03383 c -0.886348,1.52315 -1.013678,1.7535 0.02334,3.03872 l 3.23511,4.00938 c 0.51149,0.85551 0.921517,0.69775 1.853277,0.66529 l 6.925792,-0.24129 0.271081,7.02845 0.296357,7.68381 c 0.470555,-0.23929 9.678564,-15.35753 12.325563,-19.78601 0.817932,-1.39649 0.457889,-1.73196 -0.148143,-3.01913 l -1.715391,-3.64336 c -0.415556,-1.15745 -0.571935,-1.05766 -1.708083,-0.89961 l -6.024996,1.0918 1.841235,-9.73373 -10.403383,-0.22815 z"
           id="path15757" />
        <g
           id="g39473">
          <path
             id="path39470"
             style="fill:#028003;fill-opacity:1;stroke:#000000;stroke-width:1;stroke-linejoin:round;stroke-dasharray:none"
             d="M 50.481523,54.438127 39.452226,77.293596 c -1.44358,2.480722 -1.651861,2.856017 0.03711,4.949219 l 5.269531,6.53125 c 0.833053,1.393344 1.500037,1.136852 3.017578,1.083984 l 11.28125,-0.394531 0.441407,11.447262 0.482422,12.51563 C 60.747908,113.0367 75.74462,88.412435 80.055741,81.199846 81.387893,78.925394 80.802542,78.380219 79.815507,76.28383 l -2.794922,-5.933594 c -0.676809,-1.885124 -0.930824,-1.724214 -2.78125,-1.466797 l -11.255859,1.566407 2.636718,-15.640625 z m 3.171874,9.076172 10.402344,0.228516 -1.839844,9.734374 6.025391,-1.091796 c 1.136147,-0.158053 1.291476,-0.259015 1.707031,0.898437 l 1.714844,3.644531 c 0.606032,1.287167 0.966369,1.621082 0.148438,3.017578 -2.646997,4.428474 -11.855618,19.547823 -12.326172,19.78711 l -0.294922,-7.683594 -0.271484,-7.029297 -6.925782,0.242188 c -0.931759,0.03246 -1.342026,0.189487 -1.853515,-0.666016 l -3.234375,-4.009765 c -1.037017,-1.285211 -0.909785,-1.515918 -0.02344,-3.039063 z" />
        </g>
      </g>
    </g>
  </g>
</svg>
